<?xml version="1.0" standalone="no"?>
<!DOCTYPE svg PUBLIC "-//W3C//DTD SVG 20010904//EN"
 "http://www.w3.org/TR/2001/REC-SVG-20010904/DTD/svg10.dtd">
<svg version="1.0" xmlns="http://www.w3.org/2000/svg"
 width="288.000000pt" height="288.000000pt" viewBox="0 0 288.000000 288.000000"
 preserveAspectRatio="xMidYMid meet">

<g transform="translate(0.000000,288.000000) scale(0.100000,-0.100000)"
fill="#000000" stroke="none">
<path d="M1262 2820 c-97 -14 -198 -39 -297 -73 l-90 -32 -3 -877 -2 -878 175
0 c156 0 175 2 184 18 8 15 52 207 121 532 10 47 30 138 44 202 22 102 26 141
26 293 l0 175 28 -1 c23 -2 24 -2 5 -6 -23 -4 -23 -5 -23 -199 l0 -194 128 -2
127 -2 -122 -3 c-68 -2 -123 -6 -123 -8 0 -6 46 -128 63 -168 8 -17 41 -104
75 -192 169 -448 336 -881 342 -888 4 -5 21 29 38 75 17 46 114 301 217 568
102 267 198 517 212 555 14 39 29 74 33 79 9 9 20 -25 44 -139 17 -83 79 -369
142 -655 24 -113 47 -212 50 -220 13 -36 111 216 145 377 29 133 31 407 5 533
-61 291 -190 533 -387 730 -195 194 -423 317 -704 380 -104 23 -353 34 -453
20z m-145 -446 c-3 -3 -12 -4 -19 -1 -8 3 -5 6 6 6 11 1 17 -2 13 -5z m136 -1
c-18 -2 -48 -2 -65 0 -18 2 -4 4 32 4 36 0 50 -2 33 -4z m627 -13 c29 -8 25
-8 -20 -3 -30 3 -100 9 -155 14 l-100 8 120 -5 c66 -2 136 -9 155 -14z m95
-20 c25 -11 -1 -11 -35 0 -20 6 -21 8 -5 8 11 0 29 -3 40 -8z m84 -34 c26 -14
63 -37 80 -52 31 -26 81 -110 81 -136 0 -7 -11 10 -24 37 -28 60 -83 114 -151
148 -27 15 -46 26 -42 27 4 0 29 -11 56 -24z m-972 -48 c-2 -13 -4 -3 -4 22 0
25 2 35 4 23 2 -13 2 -33 0 -45z m643 -87 c24 -7 -209 -3 -240 3 -8 2 37 4
100 4 63 0 126 -3 140 -7z m97 -38 c12 -8 32 -35 44 -59 28 -59 24 -168 -7
-211 -27 -36 -88 -70 -139 -77 l-40 -6 45 13 c118 35 155 84 148 198 -4 79
-23 111 -84 147 -26 16 -31 21 -14 16 14 -4 35 -13 47 -21z m400 -85 c-2 -13
-4 -5 -4 17 -1 22 1 32 4 23 2 -10 2 -28 0 -40z m3 -159 c-17 -111 -57 -173
-146 -225 -46 -27 -149 -64 -173 -63 -9 0 16 11 54 23 86 28 124 47 170 88 54
47 76 98 89 212 6 56 12 86 14 68 2 -18 -2 -65 -8 -103z m-1143 -246 c-3 -10
-5 -2 -5 17 0 19 2 27 5 18 2 -10 2 -26 0 -35z m791 -50 c-10 -2 -26 -2 -35 0
-10 3 -2 5 17 5 19 0 27 -2 18 -5z m-528 -10 c0 -9 -169 -8 -177 1 -4 3 35 6
85 6 51 0 92 -3 92 -7z m360 -3 c-63 -4 -124 -4 -135 1 -11 4 38 7 115 7 l135
-1 -115 -7z"/>
<path d="M466 2440 c-212 -200 -363 -490 -411 -785 -19 -116 -19 -337 0 -444
69 -394 286 -731 603 -939 341 -222 739 -288 1139 -186 54 13 100 28 104 32 3
4 -40 126 -98 272 -170 435 -222 568 -281 722 -31 81 -60 144 -63 140 -3 -4
-43 -178 -88 -387 -44 -209 -96 -447 -114 -530 l-34 -150 -81 -3 c-45 -2 -82
-1 -82 1 0 7 100 463 105 474 3 10 -64 13 -303 15 l-307 3 -5 920 -5 920 -79
-75z"/>
<path d="M2371 1235 c-183 -462 -422 -1087 -418 -1092 8 -8 179 77 253 126 81
54 218 175 278 245 45 52 48 59 42 97 -7 41 -134 626 -140 644 -2 6 -9 -3 -15
-20z"/>
</g>
</svg>
